
<!-- Icons start -->
<svg xmlns="http://www.w3.org/2000/svg" style="display:none">

	<!-- Radar icon  -->
	<symbol id="radar" viewBox="0 0 24 24" fill="none" stroke="currentColor" stroke-width="2" stroke-linecap="round" stroke-linejoin="round">
	<path d="M19.07 4.93A10 10 0 0 0 6.99 3.34"/>
	<path d="M4 6h.01"/>
	<path d="M2.29 9.62A10 10 0 1 0 21.31 8.35"/>
	<path d="M16.24 7.76A6 6 0 1 0 8.23 16.67"/>
	<path d="M12 18h.01"/>
	<path d="M17.99 11.66A6 6 0 0 1 15.77 16.67"/>
	<circle cx="12" cy="12" r="2"/>
	<path d="m13.41 10.59 5.66-5.66"/>
	</symbol>

	<!-- Wrench icon  -->
	<symbol id="wrench" viewBox="0 0 24 24" fill="none" stroke="currentColor" stroke-width="2" stroke-linecap="round" stroke-linejoin="round">
		<path d="M14.7 6.3a1 1 0 0 0 0 1.4l1.6 1.6a1 1 0 0 0 1.4 0l3.106-3.105c.32-.322.863-.22.983.218a6 6 0 0 1-8.259 7.057l-7.91 7.91a1 1 0 0 1-2.999-3l7.91-7.91a6 6 0 0 1 7.057-8.259c.438.12.54.662.219.984z"/>
	</symbol>

	<!-- Settings icon -->
	<symbol id="settings" viewBox="0 0 24 24" fill="none" stroke="currentColor" stroke-width="2" stroke-linecap="round" stroke-linejoin="round">
		<path d="M12 15a3 3 0 1 0 0-6a3 3 0 0 0 0 6z" />
		<path d="M19.4 15a1.65 1.65 0 0 0 .33 1.82l.06.06a2 2 0 1 1-2.83 2.83l-.06-.06a1.65 1.65 0 0 0-1.82-.33a1.65 1.65 0 0 0-1 1.51V22a2 2 0 1 1-4 0v-.09a1.65 1.65 0 0 0-1-1.51a1.65 1.65 0 0 0-1.82.33l-.06.06a2 2 0 1 1-2.83-2.83l.06-.06a1.65 1.65 0 0 0 .33-1.82a1.65 1.65 0 0 0-1.51-1H2a2 2 0 1 1 0-4h.09a1.65 1.65 0 0 0 1.51-1a1.65 1.65 0 0 0-.33-1.82l-.06-.06a2 2 0 1 1 2.83-2.83l.06.06a1.65 1.65 0 0 0 1.82.33h.09a1.65 1.65 0 0 0 1-1.51V2a2 2 0 1 1 4 0v.09a1.65 1.65 0 0 0 1 1.51a1.65 1.65 0 0 0 1.82-.33l.06-.06a2 2 0 1 1 2.83 2.83l-.06.06a1.65 1.65 0 0 0-.33 1.82v.09a1.65 1.65 0 0 0 1.51 1H22a2 2 0 1 1 0 4h-.09a1.65 1.65 0 0 0-1.51 1z" />
	</symbol>

</svg>


