<?xml version="1.0" encoding="iso-8859-1"?>
<!-- Uploaded to: SVG Repo, www.svgrepo.com, Generator: SVG Repo Mixer Tools -->
<svg fill="#000000" height="800px" width="800px" version="1.1" id="Layer_1" xmlns="http://www.w3.org/2000/svg" xmlns:xlink="http://www.w3.org/1999/xlink" 
	 viewBox="0 0 472.615 472.615" xml:space="preserve">
<g>
	<g>
		<path d="M171.914,125.353c-51.77,0-84.587,33.174-95.712,46.549c11.182,13.355,44.192,46.596,95.712,46.596
			c51.769,0,84.596-33.183,95.711-46.558C256.452,158.603,223.443,125.353,171.914,125.353z M171.914,206.806
			c-19.2,0-34.855-15.655-34.855-34.855c0-19.298,15.655-34.855,34.855-34.855c19.2,0,34.855,15.557,34.855,34.855
			C206.769,191.151,191.114,206.806,171.914,206.806z"/>
	</g>
</g>
<g>
	<g>
		<path d="M453.908,363.557l-77.095-76.997c-7.68-7.68-20.185-7.68-27.865,0l-8.96,8.96l-26.403-26.402
			c45.903-66.875,39.292-159.315-20.071-218.767c-67.052-67.052-176.148-67.052-243.2,0C17.92,82.843,0,125.968,0,171.951
			c0,45.883,17.92,89.009,50.314,121.501c32.492,32.493,75.717,50.413,121.6,50.413c35.203,0,68.789-10.634,97.216-30.218
			l26.39,26.341l-8.996,8.997c-7.68,7.679-7.68,20.184,0,27.863l77.095,77.096c12.406,12.406,28.751,18.609,45.095,18.609
			c16.345,0,32.689-6.203,45.194-18.609c12.111-12.111,18.708-28.16,18.708-45.194C472.615,391.716,466.018,375.668,453.908,363.557
			z M245.654,76.209l17.057,9.846l-16.452,28.5l-17.057-9.846L245.654,76.209z M162.068,59.084h19.692v32.913h-19.692V59.084z
			 M98.163,76.209l16.462,28.5l-17.057,9.846l-16.462-28.5L98.163,76.209z M98.163,267.632l-17.057-9.846l16.462-28.5l17.057,9.846
			L98.163,267.632z M181.76,284.757h-19.692v-32.914h19.692V284.757z M245.654,267.632l-16.452-28.5l17.057-9.846l16.452,28.5
			L245.654,267.632z M288.24,177.382c-1.654,2.481-41.404,60.808-116.326,60.808c-74.923,0-114.673-58.327-116.328-60.808
			l-3.644-5.462l3.644-5.462c1.654-2.48,41.404-60.798,116.328-60.798c74.922,0,114.672,58.318,116.326,60.798l3.644,5.462
			L288.24,177.382z M369.866,383.805l-13.923-13.922l13.923-13.923l13.922,13.923L369.866,383.805z M397.721,411.651l-13.923-13.923
			l13.923-13.923l13.922,13.923L397.721,411.651z"/>
	</g>
</g>
</svg>